<svg width="43" height="44" viewBox="0 0 43 44" fill="none" xmlns="http://www.w3.org/2000/svg">
<g clip-path="url(#clip0)">
<path fill-rule="evenodd" clip-rule="evenodd" d="M30.0436 12.0977C27.8362 10.0094 24.8976 8.87927 21.8625 8.93941C16.3081 8.96352 11.607 12.7334 9.94695 17.7896C9.06659 20.4392 9.07901 23.3043 9.9823 25.9462L9.99011 25.9462C11.7018 30.9799 16.4275 34.7089 21.9819 34.6848C24.8491 34.6724 27.3074 33.9279 29.2095 32.6235L29.2095 32.6183C31.4482 31.1212 32.9714 28.7741 33.4372 26.1262L21.9372 26.1762L21.9016 17.9727L41.9835 17.8855C42.24 19.3091 42.3637 20.7645 42.37 22.2127C42.3981 28.6921 40.1076 34.1802 36.097 37.908L36.1012 37.9113C32.5871 41.1829 27.7528 43.0904 22.0106 43.1153C13.9607 43.1503 6.57946 38.6421 2.93401 31.4641C-0.111774 25.4577 -0.142512 18.3658 2.85109 12.3332C6.43414 5.11597 13.776 0.543879 21.8259 0.508938C27.114 0.423362 32.2311 2.38943 36.0958 5.98914L30.0436 12.0977Z" fill="white"/>
</g>
<defs>
<clipPath id="clip0">
<rect width="42.5814" height="42.6068" fill="white" transform="matrix(0.999991 -0.00434049 0.00433533 0.999991 0.109375 0.602966)"/>
</clipPath>
</defs>
</svg>
