<svg width="56" height="46" viewBox="0 0 56 46" fill="none" xmlns="http://www.w3.org/2000/svg">
<path d="M17.4238 45.092C38.2641 45.0016 49.5911 27.6717 49.5261 12.6907C49.524 12.2049 49.5111 11.7084 49.4874 11.2227C51.6985 9.60806 53.604 7.61174 55.1144 5.32753C53.0526 6.25611 50.862 6.86622 48.6173 7.13703C50.9759 5.70849 52.7368 3.47275 53.5736 0.844274C51.3548 2.17309 48.926 3.11421 46.3914 3.62728C44.6743 1.81748 42.4092 0.624077 39.9462 0.231577C37.4833 -0.160924 34.9597 0.269341 32.7657 1.45585C30.5716 2.64236 28.8293 4.51902 27.8082 6.7957C26.787 9.07237 26.5438 11.6223 27.1161 14.0511C22.6107 13.8445 18.1989 12.6928 14.1669 10.6706C10.1348 8.64851 6.57241 5.8011 3.7107 2.31301C2.27475 4.81516 1.84485 7.77052 2.50835 10.5784C3.17185 13.3864 4.87897 15.8361 7.28276 17.4299C5.48311 17.3805 3.72103 16.9034 2.14209 16.038L2.1427 16.1783C2.15244 18.7975 3.06841 21.3326 4.73489 23.3525C6.40138 25.3724 8.71553 26.7525 11.284 27.2582C9.61909 27.7218 7.86993 27.7959 6.17185 27.4747C6.90575 29.7242 8.32319 31.6882 10.2264 33.0927C12.1295 34.4973 14.4234 35.2723 16.788 35.3096C12.7877 38.4819 7.83675 40.2146 2.73249 40.2286C1.82729 40.2312 0.922746 40.1796 0.0236988 40.0741C5.22348 43.3803 11.2631 45.122 17.4238 45.092Z" fill="#1371FF"/>
</svg>
